#!OML:ASF F:\VICON\USERDATA\INSTALL\rory3\rory3.ASF
:FULLY-SPECIFIED
:DEGREES
74
root 1.0301262894251737 17.86749002010936 47.59007749237061 -4.311138190195928 0.8371209172515468 -4.57808031135807
lfemur -19.938461688660997 -2.2284144426926664 -17.63997744567794
ltibia 29.707540426722126
lfoot -6.7232028740707 0.046006008160906386
ltoes -8.245283939923356
rfemur -3.2963827209367835 1.8978523580381674 26.898391122448757
rtibia 41.15936239937535
rfoot -2.759856705091332 -11.915221953007975
rtoes 5.248649533932815
lowerback -1.0 0.8472907721905885 4.045001449944631
upperback 0.004062520190118352 2.000132925563654 1.222561175960922
thorax -4.893152644805897 1.002403689245733 -1.347738391882856
lowerneck -15.923757531501849 -3.355270042730238 -1.571114549803583
upperneck 21.7129231439517 -4.47713364095686 0.8877377506481132
head 9.649163717105706 -2.123985630184281 -0.08396543267958524
lclavicle 4.3283569379275886e-16 -8.000988042826827e-16
lhumerus -33.881507371961675 6.28957175842853 81.26257429232179
lradius 24.050560499936495
lwrist 9.213117268507869
lhand -28.477980991256924 19.6474731306789
lfingers nan
lthumb -2.2971967251174576 48.89352995027504
rclavicle 3.8362711530219576e-16 -8.333051351075032e-16
rhumerus -25.303808348060546 -14.292228892301102 -77.52315017309085
rradius 33.5498556760479
rwrist 2.1863454989629245
rhand -17.926539074527426 -1.0
rfingers nan
rthumb 8.463241990412218 -8.147626339048145
75
root 1.033959564371329 17.861818004886135 48.14174689501254 -4.319292727546107 0.9763982577576686 -3.543670081221811
lfemur -17.689596931199652 -2.5825187730176173 -19.045172772414627
ltibia 26.194412227419075
lfoot -7.331189419924356 -1.4509563017780491
ltoes -7.8493582750160265
rfemur -4.595541597566109 1.3516513815365214 25.49724992758729
rtibia 44.15883398672436
rfoot -2.6790766573146083 -11.832477589061734
rtoes 6.134633923889902
lowerback -1.0 0.7460238394702923 3.231976102172283
upperback 0.02516891376540048 1.7098398625208464 1.0552333055219583
thorax -4.89655237288687 0.8696746432153601 -1.0940611177086819
lowerneck -15.951483712560309 -3.3488455218659023 -1.5791596100002216
upperneck 21.62743014400753 -4.473872518962303 1.0692888218565415
head 9.63865784926576 -2.1130074547975277 0.00010887299587910432
lclavicle 4.337623731378701e-16 -7.984349454985844e-16
lhumerus -33.41183758559951 6.082633359726115 81.17914421668284
lradius 24.530249175855776
lwrist 9.09945736785005
lhand -28.478934348617877 19.6381687775801
lfingers nan
lthumb -2.3014338802130934 48.93756563663724
rclavicle 3.803889024349021e-16 -8.348998345130654e-16
rhumerus -25.596303109568005 -14.160233666973053 -78.1920510623272
rradius 33.27600540311708
rwrist 2.117583893968763
rhand -17.926189513014883 -1.0
rfingers nan
rthumb 8.463168065734724 -8.181530882934283
76
root 1.0329586080533804 17.853618473858113 48.23634125658857 -4.4244417270522 0.8648942739006946 -2.7221482490235296
lfemur -15.139657408333289 -2.868223189164808 -20.318815917974064
ltibia 23.56127441182261
lfoot -6.918353793806812 -1.8868030989429005
ltoes -7.579976813845288
rfemur -6.679077603443875 0.9822316159179088 24.343833332914066
rtibia 47.56789880628779
rfoot -2.7303809265963714 -11.08604408935576
rtoes 6.711316953596425
lowerback -1.0 0.6142815138237282 2.412728505168049
upperback 0.04695771526690071 1.4030873382243052 0.944585446738587
thorax -4.942636054114932 0.7276597157208355 -0.7986051810104894
lowerneck -16.006871554596728 -3.334701283334123 -1.5637504421021184
upperneck 21.532345198235912 -4.454887604042163 1.2389074901898782
head 9.625736707513822 -2.0965420746488332 0.08072978162005792
lclavicle 4.344414828582821e-16 -7.968405730986971e-16
lhumerus -32.66925557382527 5.638998121449824 81.114113263612
lradius 24.955667258905116
lwrist 8.920619044416364
lhand -28.44550420928513 19.673284850011633
lfingers nan
lthumb -2.2607147332431428 49.01738975937157
rclavicle 3.7667968208047065e-16 -8.367527748424557e-16
rhumerus -25.968649384880564 -14.23107168938064 -78.86532805424736
rradius 32.88576563818775
rwrist 1.9816255177714386
rhand -17.9315313306754 -1.0
rfingers nan
rthumb 8.45867519801885 -8.22077394766199
77
root 1.0359818616848513 17.847338206687223 48.73724276450673 -4.324120243849883 0.7467134185613369 -2.3331041676912827
lfemur -12.546947594653036 -3.148147625962583 -21.195176397343705
ltibia 21.88127855864375
lfoot -7.538310642351653 -2.86888871347569
ltoes -6.94746677740857
rfemur -9.27453858219399 0.7384854167729666 23.704216895915327
rtibia 51.00136084939268
rfoot -3.0523966024230447 -9.930648075320192
rtoes 7.0530498745506645
lowerback -1.0 0.4301369815944365 1.9558874538301037
upperback 0.04915942962807361 1.1131535410127011 0.9189463991634252
thorax -5.044525336047754 0.5795660900377219 -0.5419176144111925
lowerneck -16.082488017797264 -3.3148196348490027 -1.5277212569692353
upperneck 21.433657396211675 -4.426214904666426 1.3773493796887164
head 9.608981597269826 -2.077916372364016 0.1476851870231296
lclavicle 4.3512804019824414e-16 -7.950469515219616e-16
lhumerus -31.69993765069891 4.950389677185842 81.05663024990935
lradius 25.352044663831002
lwrist 8.625551242079627
lhand -28.381097749802958 19.731135332133423
lfingers nan
lthumb -2.2046490748745238 49.07066216305654
rclavicle 3.723995493786449e-16 -8.388876426441101e-16
rhumerus -26.3976865129866 -14.508194137561503 -79.46827408660903
rradius 32.435010438346595
rwrist 1.7873249409826033
rhand -17.940525946054077 -1.0
rfingers nan
rthumb 8.459521122252703 -8.240074631655112
78
root 1.0605911989911312 17.85877987897642 49.716040822659714 -3.883827929470603 0.6896889974029463 -2.130450063232717
lfemur -10.001736349468956 -3.4344519374642832 -21.893219703747405
ltibia 21.05153367615231
lfoot -7.833871877327162 -2.8237433881736718
ltoes -6.796933353743816
rfemur -11.995728636949059 0.5831957105718435 23.36356620477791
rtibia 53.92074984230714
rfoot -3.577526068858165 -8.379340942289808
rtoes 7.138499232417457
lowerback -1.0 0.17771616705076204 1.7094973860703975
upperback 0.027600736237868795 0.7642452832895816 0.9481088557745261
thorax -5.158140430298897 0.40446830732683203 -0.22835623242946734
lowerneck -16.171520260315102 -3.2869703141129256 -1.4740876627634731
upperneck 21.34986562898928 -4.382363166496655 1.473341467282437
head 9.595794472128343 -2.0554118450039267 0.19861483884801384
lclavicle 4.3544647253967887e-16 -7.93609531021699e-16
lhumerus -30.68674327127033 4.099549963629013 80.96578580789298
lradius 25.742518237199096
lwrist 8.218082142791648
lhand -28.308426488181073 19.76738625727742
lfingers nan
lthumb -2.1043854601339307 49.17231770131674
rclavicle 3.678983404762668e-16 -8.412472338775412e-16
rhumerus -26.94915080479297 -15.07544874208872 -80.0202264422374
rradius 32.000080412551966
rwrist 1.5559490070315518
rhand -17.961742476616156 -1.0
rfingers nan
rthumb 8.47435168094674 -8.217608255161032
79
root 1.0961870398175542 17.87448941687301 50.55216343967336 -3.7064522151270043 0.4731321772910362 -1.2085470830698233
lfemur -7.0750588723337895 -3.7188696630111204 -23.25756249715742
ltibia 20.635842170794362
lfoot -7.5050912044408875 -3.6139931653401347
ltoes -7.028414505914926
rfemur -14.864197436897953 0.3921243611044378 22.317066084067616
rtibia 56.02043753542361
rfoot -4.261844693850849 -6.5105793247022685
rtoes 6.892178024354326
lowerback -1.0 -0.10246700458382318 0.8315528463065653
upperback 0.021345155742773445 0.23051064305531094 0.906931054032643
thorax -5.231168716258741 0.13072988591197665 0.24550062346215418
lowerneck -16.26757916335108 -3.2488393634179693 -1.4251196491663067
upperneck 21.290329862213433 -4.319448424087566 1.5266564395424906
head 9.590919229448044 -2.027707376534062 0.23623374484744097
lclavicle 4.357340823726571e-16 -7.91940720828313e-16
lhumerus -29.768058036289805 3.2019311024790227 80.82187007193662
lradius 26.142422976545127
lwrist 7.714665465033384
lhand -28.249101078231654 19.840631309927097
lfingers nan
lthumb -2.0428187116156007 49.257506039925765
rclavicle 3.621759714957042e-16 -8.443233892049108e-16
rhumerus -27.525042670456163 -15.772229727424897 -80.44199241702806
rradius 31.65722767727574
rwrist 1.3131394164623962
rhand -17.96396038858141 -1.0
rfingers nan
rthumb 8.460676743383141 -8.247432604324231
80
root 1.131565676133692 17.883334449459248 50.85634562993166 -3.7105604000958987 0.2510843505156104 -0.3768973904906583
lfemur -3.9588861057438756 -4.05874158149011 -24.50676501310914
ltibia 20.44614208355758
lfoot -7.428647718018022 -3.8483075139016343
ltoes -6.1019343298152116
rfemur -18.059184982456227 0.20286230911889325 21.373384645667628
rtibia 57.11726704024885
rfoot -5.21239609239222 -4.739543999973771
rtoes 6.3326350307255215
lowerback -1.0 -0.36624558410769487 0.04473336824555463
upperback 0.019508062116734767 -0.2559439623562102 0.9035735614402204
thorax -5.258137459730561 -0.12578373950097538 0.7156191705387237
lowerneck -16.35742335474376 -3.193466841558306 -1.391918914829689
upperneck 21.265639862518725 -4.223955578314313 1.5349495935872075
head 9.596530384530002 -1.9895961749564786 0.26600205266281624
lclavicle 4.3575893644627406e-16 -7.898011263480164e-16
lhumerus -28.89134398027211 2.4894523832228317 80.65969378982935
lradius 26.521382799857804
lwrist 7.149843611396182
lhand -28.243050434640764 19.83022946576916
lfingers nan
lthumb -1.9715370115042785 49.401270076175365
rclavicle 3.545358102762572e-16 -8.483516039383655e-16
rhumerus -28.147497194190038 -16.534463853034392 -80.75009602832536
rradius 31.419666965182103
rwrist 1.0680383259285278
rhand -17.991908640066026 -1.0
rfingers nan
rthumb 8.47159010281656 -8.202558069022135
